<svg width="24" height="24" viewBox="0 0 24 24" fill="none" xmlns="http://www.w3.org/2000/svg">
<path d="M8.30303 21.5532C6.8291 21.5987 5.39698 21.0595 4.31903 20.0532C3.78446 19.5178 3.36582 18.8782 3.08918 18.174C2.81253 17.4698 2.68382 16.7163 2.71103 15.9602V8.1082C2.66611 7.36717 2.77895 6.62505 3.0421 5.93086C3.30524 5.23667 3.7127 4.60622 4.23756 4.08118C4.76241 3.55614 5.39271 3.14845 6.08681 2.88505C6.7809 2.62165 7.52299 2.50855 8.26403 2.5532H16.157C16.8989 2.52759 17.6382 2.65371 18.3296 2.92384C19.021 3.19398 19.65 3.60244 20.178 4.1242C20.6866 4.6523 21.0842 5.27689 21.3475 5.96113C21.6108 6.64538 21.7344 7.37542 21.711 8.1082V15.9992C21.7397 16.7463 21.6152 17.4914 21.3452 18.1886C21.0752 18.8857 20.6654 19.5203 20.141 20.0532C19.0497 21.0625 17.6048 21.6014 16.119 21.5532H8.30303ZM5.51103 5.3122C5.15918 5.68536 4.88626 6.12567 4.70859 6.60679C4.53092 7.08791 4.45216 7.59993 4.47703 8.1122V15.9652C4.45001 16.4819 4.52768 16.9988 4.70536 17.4847C4.88304 17.9707 5.15708 18.4158 5.51103 18.7932C6.27856 19.4784 7.2831 19.8372 8.31103 19.7932H16.127C17.155 19.837 18.1594 19.4783 18.927 18.7932C19.2955 18.4295 19.5845 17.9933 19.7757 17.5122C19.9669 17.0311 20.0563 16.5156 20.038 15.9982V8.1082C20.0573 7.08922 19.6822 6.10218 18.991 5.3532C18.618 5.00121 18.1777 4.72819 17.6965 4.55051C17.2154 4.37283 16.7033 4.29416 16.191 4.3192H8.30303C7.27775 4.26854 6.27406 4.62552 5.51103 5.3122ZM7.31103 12.0122C7.31103 11.0431 7.59841 10.0957 8.13683 9.28991C8.67525 8.48411 9.44052 7.85606 10.3359 7.48519C11.2312 7.11432 12.2165 7.01729 13.167 7.20635C14.1175 7.39542 14.9906 7.8621 15.6759 8.54738C16.3611 9.23266 16.8278 10.1058 17.0169 11.0563C17.2059 12.0068 17.1089 12.992 16.738 13.8874C16.3672 14.7827 15.7391 15.548 14.9333 16.0864C14.1275 16.6248 13.1802 16.9122 12.211 16.9122C10.9129 16.9093 9.66869 16.3925 8.75047 15.4749C7.83226 14.5572 7.31473 13.3134 7.31103 12.0152V12.0122ZM9.07403 12.0122C9.07364 12.6337 9.25762 13.2413 9.60269 13.7582C9.94777 14.2751 10.4384 14.678 11.0126 14.9159C11.5867 15.1538 12.2185 15.2161 12.8281 15.0948C13.4376 14.9735 13.9974 14.6741 14.4368 14.2345C14.8761 13.7949 15.1751 13.2349 15.296 12.6253C15.4169 12.0156 15.3543 11.3839 15.116 10.8099C14.8777 10.2359 14.4745 9.74549 13.9574 9.40075C13.4403 9.05601 12.8325 8.87241 12.211 8.8732C11.3789 8.87663 10.5818 9.20879 9.99344 9.79732C9.4051 10.3858 9.07319 11.183 9.07003 12.0152L9.07403 12.0122ZM16.199 6.9922C16.2 6.77273 16.266 6.55846 16.3886 6.37644C16.5113 6.19441 16.6851 6.05279 16.8881 5.96944C17.0911 5.88609 17.3143 5.86474 17.5295 5.90809C17.7446 5.95144 17.9421 6.05755 18.097 6.21302C18.2519 6.36849 18.3573 6.56637 18.3999 6.78168C18.4425 6.99699 18.4203 7.22008 18.3363 7.42282C18.2522 7.62555 18.1099 7.79884 17.9275 7.92082C17.745 8.0428 17.5305 8.108 17.311 8.1082C17.1646 8.10873 17.0195 8.08032 16.884 8.02461C16.7486 7.9689 16.6255 7.88699 16.5218 7.78357C16.4181 7.68015 16.3358 7.55727 16.2798 7.42198C16.2237 7.28669 16.1949 7.14165 16.195 6.9952L16.199 6.9922Z" fill="#005CFF"/>
</svg>
