<svg width="27" height="16" viewBox="0 0 27 16" fill="none" xmlns="http://www.w3.org/2000/svg">
<path d="M13.3585 14.0877C11.9812 15.1411 10.2439 15.7695 8.35562 15.7695C3.88172 15.7695 0.255615 12.2424 0.255615 7.89059C0.255615 3.53883 3.88172 0.0117188 8.35562 0.0117188C10.2439 0.0117188 11.9812 0.640085 13.3585 1.6935C14.7358 0.640546 16.4717 0.0117188 18.3555 0.0117188C22.8222 0.0117188 26.4555 3.54583 26.4555 7.89059C26.4555 12.2353 22.8222 15.7695 18.3555 15.7695C16.4717 15.7695 14.7358 15.1406 13.3585 14.0877ZM18.3555 13.8243C21.7197 13.8243 24.4557 11.1621 24.4557 7.89059C24.4557 4.61911 21.7197 1.95692 18.3555 1.95692C17.02 1.95692 15.7832 2.37672 14.7774 3.08774C15.8297 4.41716 16.4556 6.08284 16.4556 7.89059C16.4556 9.69834 15.8297 11.364 14.7774 12.6934C15.7832 13.4044 17.02 13.8243 18.3555 13.8243Z" fill="#303030"/>
</svg>
