<svg width="28" height="20" viewBox="0 0 28 20" fill="none" xmlns="http://www.w3.org/2000/svg">
<path d="M3.44873 19.0842C2.0791 19.0842 0.96582 18.0012 0.96582 16.6689V3.16708C0.96582 1.83555 2.0791 0.751831 3.44873 0.751831H25.2622C26.6311 0.751831 27.7451 1.83555 27.7451 3.16708V16.6689C27.7451 18.0012 26.6311 19.0842 25.2622 19.0842H3.44873ZM2.54419 3.48221V16.3537C2.54419 17.1127 3.17798 17.729 3.95825 17.729H24.7527C25.532 17.729 26.1665 17.1127 26.1665 16.3537V3.48221C26.1665 2.72418 25.532 2.10699 24.7527 2.10699H3.95825C3.17798 2.10699 2.54419 2.72418 2.54419 3.48221ZM23.8967 12.5702L22.5342 10.8455L21.1707 12.5702H16.8076V7.26591H21.3076L22.3982 8.85735L23.7617 7.26591H25.2612L23.2173 9.91756L25.2612 12.5702H23.8967ZM17.9011 11.5091H20.4902L21.718 9.91934L20.6272 8.45993H17.9011V9.38704H20.3545V10.4481H17.9011V11.5091ZM14.219 12.5702V8.72519L12.7188 12.5702H11.6279L10.1277 8.59221V12.5702H7.81104L7.40332 11.3768H5.08496L4.67554 12.5702H3.448L5.49268 7.26591H6.99292L8.90186 12.3049V7.26591H10.8098L12.1733 10.8455L13.5369 7.26591H15.3098V12.5702H14.219ZM5.49268 10.1828H6.85718L6.1748 8.32695L5.49268 10.1828Z" fill="#303030"/>
</svg>
