<svg width="139" height="164" viewBox="0 0 139 164" fill="none" xmlns="http://www.w3.org/2000/svg">
<path d="M15.9914 33.36C13.9381 33.36 11.9914 33.0933 10.1514 32.56C8.33807 32 6.85807 31.2533 5.71141 30.32C5.09807 29.8667 4.79141 29.2267 4.79141 28.4C4.79141 27.84 4.95141 27.36 5.27141 26.96C5.61807 26.5333 6.01807 26.32 6.47141 26.32C6.95141 26.32 7.49807 26.5067 8.11141 26.88C9.25807 27.7067 10.4581 28.3067 11.7114 28.68C12.9647 29.0533 14.3514 29.24 15.8714 29.24C17.8181 29.24 19.3114 28.9067 20.3514 28.24C21.3914 27.5467 21.9114 26.5467 21.9114 25.24C21.9114 24.2267 21.4181 23.4533 20.4314 22.92C19.4714 22.36 17.8581 21.8267 15.5914 21.32C13.2447 20.8133 11.3381 20.2267 9.87141 19.56C8.40474 18.8933 7.29807 18.04 6.55141 17C5.80474 15.96 5.43141 14.64 5.43141 13.04C5.43141 11.3867 5.89807 9.90667 6.83141 8.6C7.76474 7.29333 9.05807 6.28 10.7114 5.56C12.3914 4.81333 14.2714 4.44 16.3514 4.44C20.1647 4.44 23.2714 5.45333 25.6714 7.48C26.0181 7.77333 26.2581 8.06667 26.3914 8.36C26.5514 8.62667 26.6314 8.97333 26.6314 9.4C26.6314 9.96 26.4581 10.4533 26.1114 10.88C25.7914 11.28 25.4047 11.48 24.9514 11.48C24.6847 11.48 24.4314 11.44 24.1914 11.36C23.9781 11.28 23.6847 11.1333 23.3114 10.92C22.2181 10.12 21.1514 9.53333 20.1114 9.16C19.0981 8.76 17.8447 8.56 16.3514 8.56C14.5381 8.56 13.0981 8.93333 12.0314 9.68C10.9914 10.4 10.4714 11.4133 10.4714 12.72C10.4714 13.8133 10.9381 14.6533 11.8714 15.24C12.8047 15.8267 14.3914 16.3733 16.6314 16.88C19.0047 17.4133 20.9247 18.0133 22.3914 18.68C23.8847 19.32 25.0181 20.1467 25.7914 21.16C26.5914 22.1733 26.9914 23.44 26.9914 24.96C26.9914 26.6133 26.5247 28.08 25.5914 29.36C24.6847 30.6133 23.3914 31.6 21.7114 32.32C20.0581 33.0133 18.1514 33.36 15.9914 33.36ZM43.3792 33.36C39.5126 33.36 36.5792 32.36 34.5792 30.36C32.5792 28.36 31.5792 25.44 31.5792 21.6V7.16C31.5792 6.38667 31.8059 5.77333 32.2592 5.32C32.7126 4.84 33.3259 4.6 34.0992 4.6C34.8726 4.6 35.4859 4.84 35.9392 5.32C36.3926 5.77333 36.6192 6.38667 36.6192 7.16V21.88C36.6192 24.3067 37.1926 26.1467 38.3392 27.4C39.4859 28.6267 41.1659 29.24 43.3792 29.24C45.5659 29.24 47.2326 28.6133 48.3792 27.36C49.5259 26.1067 50.0992 24.28 50.0992 21.88V7.16C50.0992 6.38667 50.3259 5.77333 50.7792 5.32C51.2326 4.84 51.8459 4.6 52.6192 4.6C53.3926 4.6 54.0059 4.84 54.4592 5.32C54.9126 5.77333 55.1392 6.38667 55.1392 7.16V21.6C55.1392 25.4133 54.1392 28.3333 52.1392 30.36C50.1392 32.36 47.2192 33.36 43.3792 33.36ZM63.6352 33.24C62.8618 33.24 62.2352 33.0133 61.7552 32.56C61.3018 32.08 61.0752 31.44 61.0752 30.64V7.24C61.0752 6.46666 61.2885 5.86667 61.7152 5.44C62.1685 5.01333 62.7818 4.8 63.5552 4.8H73.3952C76.4085 4.8 78.7552 5.56 80.4352 7.08C82.1152 8.57333 82.9552 10.68 82.9552 13.4C82.9552 16.12 82.1152 18.24 80.4352 19.76C78.7552 21.28 76.4085 22.04 73.3952 22.04H66.2352V30.64C66.2352 31.44 65.9952 32.08 65.5152 32.56C65.0618 33.0133 64.4352 33.24 63.6352 33.24ZM72.7552 18.08C76.3018 18.08 78.0752 16.5333 78.0752 13.44C78.0752 10.3467 76.3018 8.8 72.7552 8.8H66.2352V18.08H72.7552ZM89.9614 33C89.1881 33 88.5747 32.7867 88.1214 32.36C87.6947 31.9333 87.4814 31.3333 87.4814 30.56V7.24C87.4814 6.46666 87.6947 5.86667 88.1214 5.44C88.5747 5.01333 89.1881 4.8 89.9614 4.8H104.401C105.175 4.8 105.775 4.97333 106.201 5.32C106.628 5.66667 106.841 6.16 106.841 6.8C106.841 7.46666 106.628 7.98666 106.201 8.36C105.775 8.70666 105.175 8.88 104.401 8.88H92.5214V16.64H103.601C104.375 16.64 104.975 16.8133 105.401 17.16C105.828 17.5067 106.041 18.0133 106.041 18.68C106.041 19.32 105.828 19.8133 105.401 20.16C104.975 20.5067 104.375 20.68 103.601 20.68H92.5214V28.92H104.401C105.175 28.92 105.775 29.1067 106.201 29.48C106.628 29.8267 106.841 30.3333 106.841 31C106.841 31.64 106.628 32.1333 106.201 32.48C105.775 32.8267 105.175 33 104.401 33H89.9614ZM133.596 29.76C133.916 30.24 134.076 30.7067 134.076 31.16C134.076 31.7733 133.823 32.28 133.316 32.68C132.836 33.08 132.263 33.28 131.596 33.28C131.169 33.28 130.756 33.1867 130.356 33C129.983 32.7867 129.663 32.48 129.396 32.08L124.076 24C123.543 23.1467 122.969 22.5467 122.356 22.2C121.769 21.8533 120.996 21.68 120.036 21.68H116.116V30.64C116.116 31.44 115.889 32.08 115.436 32.56C114.983 33.0133 114.369 33.24 113.596 33.24C112.823 33.24 112.196 33.0133 111.716 32.56C111.263 32.08 111.036 31.44 111.036 30.64V7.24C111.036 6.46666 111.249 5.86667 111.676 5.44C112.129 5.01333 112.743 4.8 113.516 4.8H123.516C126.716 4.8 129.143 5.52 130.796 6.96C132.476 8.37333 133.316 10.4267 133.316 13.12C133.316 15.3067 132.689 17.1067 131.436 18.52C130.209 19.9067 128.463 20.8 126.196 21.2C126.969 21.3867 127.649 21.72 128.236 22.2C128.823 22.68 129.396 23.3467 129.956 24.2L133.596 29.76ZM122.796 17.72C124.743 17.72 126.169 17.36 127.076 16.64C127.983 15.8933 128.436 14.76 128.436 13.24C128.436 11.6933 127.983 10.5733 127.076 9.88C126.169 9.16 124.743 8.8 122.796 8.8H116.076V17.72H122.796ZM33.0505 73.32C31.0771 73.32 29.1705 73.0133 27.3305 72.4C25.5171 71.76 24.0905 70.9067 23.0505 69.84C22.7038 69.5467 22.5305 69.16 22.5305 68.68C22.5305 68.3867 22.6105 68.1333 22.7705 67.92C22.9571 67.7067 23.1571 67.6 23.3705 67.6C23.6371 67.6 23.9438 67.7333 24.2905 68C26.7971 70.08 29.7171 71.12 33.0505 71.12C35.4771 71.12 37.3438 70.64 38.6505 69.68C39.9838 68.6933 40.6505 67.3067 40.6505 65.52C40.6505 64.48 40.3305 63.64 39.6905 63C39.0505 62.36 38.2371 61.8667 37.2505 61.52C36.2638 61.1467 34.9438 60.7733 33.2905 60.4C31.1038 59.92 29.3305 59.4267 27.9705 58.92C26.6371 58.4133 25.5038 57.6533 24.5705 56.64C23.6371 55.6 23.1705 54.2133 23.1705 52.48C23.1705 50.9067 23.5838 49.52 24.4105 48.32C25.2638 47.0933 26.4505 46.1467 27.9705 45.48C29.4905 44.8133 31.2371 44.48 33.2105 44.48C35.0505 44.48 36.7838 44.7867 38.4105 45.4C40.0371 45.9867 41.3838 46.84 42.4505 47.96C42.7971 48.3067 42.9705 48.6933 42.9705 49.12C42.9705 49.4133 42.8771 49.6667 42.6905 49.88C42.5305 50.0933 42.3438 50.2 42.1305 50.2C41.8638 50.2 41.5571 50.0667 41.2105 49.8C39.7705 48.6267 38.4638 47.8133 37.2905 47.36C36.1438 46.9067 34.7838 46.68 33.2105 46.68C30.8371 46.68 28.9838 47.1867 27.6505 48.2C26.3171 49.2133 25.6505 50.6267 25.6505 52.44C25.6505 53.5333 25.9438 54.4267 26.5305 55.12C27.1171 55.7867 27.8771 56.32 28.8105 56.72C29.7705 57.12 30.9971 57.5067 32.4905 57.88L33.5305 58.12C35.6905 58.6533 37.3971 59.1467 38.6505 59.6C39.9038 60.0533 40.9571 60.76 41.8105 61.72C42.6905 62.6533 43.1305 63.92 43.1305 65.52C43.1305 67.04 42.7038 68.4 41.8505 69.6C41.0238 70.7733 39.8371 71.6933 38.2905 72.36C36.7705 73 35.0238 73.32 33.0505 73.32ZM72.3883 71.68C72.4683 71.84 72.5083 72 72.5083 72.16C72.5083 72.4533 72.3883 72.7067 72.1483 72.92C71.9083 73.1067 71.6283 73.2 71.3083 73.2C71.0949 73.2 70.8816 73.1333 70.6683 73C70.4816 72.8667 70.3349 72.68 70.2283 72.44L67.1883 65.48H51.6683L48.5883 72.44C48.3483 72.9467 47.9749 73.2 47.4683 73.2C47.1483 73.2 46.8683 73.1067 46.6283 72.92C46.4149 72.7067 46.3083 72.44 46.3083 72.12C46.3083 71.9333 46.3349 71.7867 46.3883 71.68L58.0683 45.44C58.3083 44.8533 58.7483 44.56 59.3883 44.56C59.6816 44.56 59.9483 44.64 60.1883 44.8C60.4549 44.96 60.6416 45.1733 60.7483 45.44L72.3883 71.68ZM52.5883 63.32H66.2283L59.4283 47.84L52.5883 63.32ZM78.6973 73C78.3507 73 78.044 72.8933 77.7773 72.68C77.5373 72.4667 77.4173 72.2 77.4173 71.88V45.88C77.4173 45.5067 77.524 45.2 77.7373 44.96C77.9773 44.72 78.284 44.6 78.6573 44.6C79.0573 44.6 79.364 44.72 79.5773 44.96C79.7907 45.1733 79.8973 45.48 79.8973 45.88V70.84H93.5773C93.924 70.84 94.1907 70.9333 94.3773 71.12C94.5907 71.3067 94.6973 71.5733 94.6973 71.92C94.6973 72.2667 94.5907 72.5333 94.3773 72.72C94.1907 72.9067 93.924 73 93.5773 73H78.6973ZM100.065 73C99.6921 73 99.3721 72.88 99.1055 72.64C98.8655 72.4 98.7455 72.1067 98.7455 71.76V46.04C98.7455 45.6933 98.8655 45.4 99.1055 45.16C99.3721 44.92 99.6921 44.8 100.065 44.8H115.265C115.612 44.8 115.879 44.8933 116.065 45.08C116.279 45.2667 116.385 45.5333 116.385 45.88C116.385 46.2 116.279 46.4533 116.065 46.64C115.879 46.8267 115.612 46.92 115.265 46.92H101.185V57.6H114.465C114.812 57.6 115.079 57.6933 115.265 57.88C115.479 58.0667 115.585 58.3333 115.585 58.68C115.585 59.0267 115.479 59.2933 115.265 59.48C115.079 59.6667 114.812 59.76 114.465 59.76H101.185V70.88H115.265C115.612 70.88 115.879 70.9733 116.065 71.16C116.279 71.32 116.385 71.5733 116.385 71.92C116.385 72.2667 116.279 72.5333 116.065 72.72C115.879 72.9067 115.612 73 115.265 73H100.065Z" fill="black"/>
<path d="M3.84 104.108C3.224 104.108 2.64 104.028 2.088 103.868C1.544 103.7 1.1 103.476 0.756 103.196C0.572 103.06 0.48 102.868 0.48 102.62C0.48 102.452 0.528 102.308 0.624 102.188C0.728 102.06 0.848 101.996 0.984 101.996C1.128 101.996 1.292 102.052 1.476 102.164C1.82 102.412 2.18 102.592 2.556 102.704C2.932 102.816 3.348 102.872 3.804 102.872C4.388 102.872 4.836 102.772 5.148 102.572C5.46 102.364 5.616 102.064 5.616 101.672C5.616 101.368 5.468 101.136 5.172 100.976C4.884 100.808 4.4 100.648 3.72 100.496C3.016 100.344 2.444 100.168 2.004 99.968C1.564 99.768 1.232 99.512 1.008 99.2C0.784 98.888 0.672 98.492 0.672 98.012C0.672 97.516 0.812 97.072 1.092 96.68C1.372 96.288 1.76 95.984 2.256 95.768C2.76 95.544 3.324 95.432 3.948 95.432C5.092 95.432 6.024 95.736 6.744 96.344C6.848 96.432 6.92 96.52 6.96 96.608C7.008 96.688 7.032 96.792 7.032 96.92C7.032 97.088 6.98 97.236 6.876 97.364C6.78 97.484 6.664 97.544 6.528 97.544C6.448 97.544 6.372 97.532 6.3 97.508C6.236 97.484 6.148 97.44 6.036 97.376C5.708 97.136 5.388 96.96 5.076 96.848C4.772 96.728 4.396 96.668 3.948 96.668C3.404 96.668 2.972 96.78 2.652 97.004C2.34 97.22 2.184 97.524 2.184 97.916C2.184 98.244 2.324 98.496 2.604 98.672C2.884 98.848 3.36 99.012 4.032 99.164C4.744 99.324 5.32 99.504 5.76 99.704C6.208 99.896 6.548 100.144 6.78 100.448C7.02 100.752 7.14 101.132 7.14 101.588C7.14 102.084 7 102.524 6.72 102.908C6.448 103.284 6.06 103.58 5.556 103.796C5.06 104.004 4.488 104.108 3.84 104.108ZM9.30834 104C9.07634 104 8.89234 103.936 8.75634 103.808C8.62834 103.68 8.56434 103.5 8.56434 103.268V96.272C8.56434 96.04 8.62834 95.86 8.75634 95.732C8.89234 95.604 9.07634 95.54 9.30834 95.54H13.6403C13.8723 95.54 14.0523 95.592 14.1803 95.696C14.3083 95.8 14.3723 95.948 14.3723 96.14C14.3723 96.34 14.3083 96.496 14.1803 96.608C14.0523 96.712 13.8723 96.764 13.6403 96.764H10.0763V99.092H13.4003C13.6323 99.092 13.8123 99.144 13.9403 99.248C14.0683 99.352 14.1323 99.504 14.1323 99.704C14.1323 99.896 14.0683 100.044 13.9403 100.148C13.8123 100.252 13.6323 100.304 13.4003 100.304H10.0763V102.776H13.6403C13.8723 102.776 14.0523 102.832 14.1803 102.944C14.3083 103.048 14.3723 103.2 14.3723 103.4C14.3723 103.592 14.3083 103.74 14.1803 103.844C14.0523 103.948 13.8723 104 13.6403 104H9.30834ZM16.3628 104C16.1308 104 15.9508 103.936 15.8228 103.808C15.6948 103.68 15.6308 103.504 15.6308 103.28V96.248C15.6308 96.016 15.6988 95.832 15.8348 95.696C15.9788 95.552 16.1668 95.48 16.3988 95.48C16.6388 95.48 16.8268 95.552 16.9628 95.696C17.1068 95.832 17.1788 96.016 17.1788 96.248V102.728H20.5508C21.0308 102.728 21.2708 102.94 21.2708 103.364C21.2708 103.788 21.0308 104 20.5508 104H16.3628ZM23.031 104C22.799 104 22.615 103.936 22.479 103.808C22.351 103.68 22.287 103.5 22.287 103.268V96.272C22.287 96.04 22.351 95.86 22.479 95.732C22.615 95.604 22.799 95.54 23.031 95.54H27.363C27.595 95.54 27.775 95.592 27.903 95.696C28.031 95.8 28.095 95.948 28.095 96.14C28.095 96.34 28.031 96.496 27.903 96.608C27.775 96.712 27.595 96.764 27.363 96.764H23.799V99.092H27.123C27.355 99.092 27.535 99.144 27.663 99.248C27.791 99.352 27.855 99.504 27.855 99.704C27.855 99.896 27.791 100.044 27.663 100.148C27.535 100.252 27.355 100.304 27.123 100.304H23.799V102.776H27.363C27.595 102.776 27.775 102.832 27.903 102.944C28.031 103.048 28.095 103.2 28.095 103.4C28.095 103.592 28.031 103.74 27.903 103.844C27.775 103.948 27.595 104 27.363 104H23.031ZM33.11 104.108C32.294 104.108 31.578 103.932 30.962 103.58C30.354 103.228 29.886 102.724 29.558 102.068C29.23 101.412 29.066 100.644 29.066 99.764C29.066 98.884 29.23 98.12 29.558 97.472C29.886 96.816 30.354 96.312 30.962 95.96C31.578 95.608 32.294 95.432 33.11 95.432C33.638 95.432 34.134 95.512 34.598 95.672C35.062 95.824 35.474 96.048 35.834 96.344C35.938 96.424 36.01 96.508 36.05 96.596C36.09 96.684 36.11 96.792 36.11 96.92C36.11 97.096 36.062 97.244 35.966 97.364C35.87 97.484 35.754 97.544 35.618 97.544C35.458 97.544 35.294 97.488 35.126 97.376C34.782 97.12 34.462 96.944 34.166 96.848C33.87 96.744 33.542 96.692 33.182 96.692C32.35 96.692 31.718 96.952 31.286 97.472C30.862 97.992 30.65 98.756 30.65 99.764C30.65 100.78 30.862 101.548 31.286 102.068C31.718 102.588 32.35 102.848 33.182 102.848C33.526 102.848 33.842 102.796 34.13 102.692C34.426 102.588 34.758 102.412 35.126 102.164C35.206 102.116 35.286 102.076 35.366 102.044C35.446 102.012 35.53 101.996 35.618 101.996C35.754 101.996 35.87 102.056 35.966 102.176C36.062 102.296 36.11 102.444 36.11 102.62C36.11 102.74 36.09 102.848 36.05 102.944C36.01 103.032 35.938 103.116 35.834 103.196C35.474 103.492 35.062 103.72 34.598 103.88C34.134 104.032 33.638 104.108 33.11 104.108ZM40.1176 104.06C39.8776 104.06 39.6856 103.992 39.5416 103.856C39.4056 103.712 39.3376 103.524 39.3376 103.292V96.812H37.1536C36.6736 96.812 36.4336 96.6 36.4336 96.176C36.4336 95.752 36.6736 95.54 37.1536 95.54H43.0696C43.5496 95.54 43.7896 95.752 43.7896 96.176C43.7896 96.6 43.5496 96.812 43.0696 96.812H40.8856V103.292C40.8856 103.524 40.8136 103.712 40.6696 103.856C40.5336 103.992 40.3496 104.06 40.1176 104.06ZM45.449 104C45.217 104 45.033 103.936 44.897 103.808C44.769 103.68 44.705 103.5 44.705 103.268V96.272C44.705 96.04 44.769 95.86 44.897 95.732C45.033 95.604 45.217 95.54 45.449 95.54H49.781C50.013 95.54 50.193 95.592 50.321 95.696C50.449 95.8 50.513 95.948 50.513 96.14C50.513 96.34 50.449 96.496 50.321 96.608C50.193 96.712 50.013 96.764 49.781 96.764H46.217V99.092H49.541C49.773 99.092 49.953 99.144 50.081 99.248C50.209 99.352 50.273 99.504 50.273 99.704C50.273 99.896 50.209 100.044 50.081 100.148C49.953 100.252 49.773 100.304 49.541 100.304H46.217V102.776H49.781C50.013 102.776 50.193 102.832 50.321 102.944C50.449 103.048 50.513 103.2 50.513 103.4C50.513 103.592 50.449 103.74 50.321 103.844C50.193 103.948 50.013 104 49.781 104H45.449ZM52.5154 104C52.2834 104 52.0994 103.936 51.9634 103.808C51.8354 103.68 51.7714 103.5 51.7714 103.268V96.272C51.7714 96.04 51.8354 95.86 51.9634 95.732C52.0994 95.604 52.2834 95.54 52.5154 95.54H54.8914C56.2754 95.54 57.3474 95.912 58.1074 96.656C58.8754 97.392 59.2594 98.428 59.2594 99.764C59.2594 101.108 58.8754 102.152 58.1074 102.896C57.3474 103.632 56.2754 104 54.8914 104H52.5154ZM54.7954 102.74C56.7394 102.74 57.7114 101.748 57.7114 99.764C57.7114 97.788 56.7394 96.8 54.7954 96.8H53.3194V102.74H54.7954ZM64.8441 104.072C64.6121 104.072 64.4241 104 64.2801 103.856C64.1441 103.712 64.0761 103.524 64.0761 103.292V96.248C64.0761 96.016 64.1441 95.832 64.2801 95.696C64.4241 95.552 64.6121 95.48 64.8441 95.48C65.0841 95.48 65.2721 95.552 65.4081 95.696C65.5521 95.832 65.6241 96.016 65.6241 96.248V103.292C65.6241 103.524 65.5521 103.712 65.4081 103.856C65.2721 104 65.0841 104.072 64.8441 104.072ZM70.2231 104.06C69.9831 104.06 69.7911 103.992 69.6471 103.856C69.5111 103.712 69.4431 103.524 69.4431 103.292V96.812H67.2591C66.7791 96.812 66.5391 96.6 66.5391 96.176C66.5391 95.752 66.7791 95.54 67.2591 95.54H73.1751C73.6551 95.54 73.8951 95.752 73.8951 96.176C73.8951 96.6 73.6551 96.812 73.1751 96.812H70.9911V103.292C70.9911 103.524 70.9191 103.712 70.7751 103.856C70.6391 103.992 70.4551 104.06 70.2231 104.06ZM75.5544 104C75.3224 104 75.1384 103.936 75.0024 103.808C74.8744 103.68 74.8104 103.5 74.8104 103.268V96.272C74.8104 96.04 74.8744 95.86 75.0024 95.732C75.1384 95.604 75.3224 95.54 75.5544 95.54H79.8864C80.1184 95.54 80.2984 95.592 80.4264 95.696C80.5544 95.8 80.6184 95.948 80.6184 96.14C80.6184 96.34 80.5544 96.496 80.4264 96.608C80.2984 96.712 80.1184 96.764 79.8864 96.764H76.3224V99.092H79.6464C79.8784 99.092 80.0584 99.144 80.1864 99.248C80.3144 99.352 80.3784 99.504 80.3784 99.704C80.3784 99.896 80.3144 100.044 80.1864 100.148C80.0584 100.252 79.8784 100.304 79.6464 100.304H76.3224V102.776H79.8864C80.1184 102.776 80.2984 102.832 80.4264 102.944C80.5544 103.048 80.6184 103.2 80.6184 103.4C80.6184 103.592 80.5544 103.74 80.4264 103.844C80.2984 103.948 80.1184 104 79.8864 104H75.5544ZM89.3888 95.48C89.6128 95.48 89.7928 95.552 89.9288 95.696C90.0648 95.832 90.1328 96.016 90.1328 96.248V103.352C90.1328 103.576 90.0688 103.752 89.9408 103.88C89.8128 104.008 89.6448 104.072 89.4368 104.072C89.2288 104.072 89.0648 104.008 88.9448 103.88C88.8248 103.752 88.7648 103.576 88.7648 103.352V98.408L86.7248 102.272C86.6288 102.448 86.5248 102.58 86.4128 102.668C86.3008 102.748 86.1688 102.788 86.0168 102.788C85.8648 102.788 85.7328 102.748 85.6208 102.668C85.5088 102.588 85.4048 102.456 85.3088 102.272L83.2568 98.468V103.352C83.2568 103.568 83.1928 103.744 83.0648 103.88C82.9448 104.008 82.7808 104.072 82.5728 104.072C82.3648 104.072 82.2008 104.008 82.0808 103.88C81.9608 103.752 81.9008 103.576 81.9008 103.352V96.248C81.9008 96.016 81.9648 95.832 82.0928 95.696C82.2288 95.552 82.4088 95.48 82.6328 95.48C82.9448 95.48 83.1888 95.652 83.3648 95.996L86.0288 101.072L88.6808 95.996C88.8568 95.652 89.0928 95.48 89.3888 95.48ZM94.8947 104.108C94.2787 104.108 93.6947 104.028 93.1427 103.868C92.5987 103.7 92.1547 103.476 91.8107 103.196C91.6267 103.06 91.5347 102.868 91.5347 102.62C91.5347 102.452 91.5827 102.308 91.6787 102.188C91.7827 102.06 91.9027 101.996 92.0387 101.996C92.1827 101.996 92.3467 102.052 92.5307 102.164C92.8747 102.412 93.2347 102.592 93.6107 102.704C93.9867 102.816 94.4027 102.872 94.8587 102.872C95.4427 102.872 95.8907 102.772 96.2027 102.572C96.5147 102.364 96.6707 102.064 96.6707 101.672C96.6707 101.368 96.5227 101.136 96.2267 100.976C95.9387 100.808 95.4547 100.648 94.7747 100.496C94.0707 100.344 93.4987 100.168 93.0587 99.968C92.6187 99.768 92.2867 99.512 92.0627 99.2C91.8387 98.888 91.7267 98.492 91.7267 98.012C91.7267 97.516 91.8667 97.072 92.1467 96.68C92.4267 96.288 92.8147 95.984 93.3107 95.768C93.8147 95.544 94.3787 95.432 95.0027 95.432C96.1467 95.432 97.0787 95.736 97.7987 96.344C97.9027 96.432 97.9747 96.52 98.0147 96.608C98.0627 96.688 98.0867 96.792 98.0867 96.92C98.0867 97.088 98.0347 97.236 97.9307 97.364C97.8347 97.484 97.7187 97.544 97.5827 97.544C97.5027 97.544 97.4267 97.532 97.3547 97.508C97.2907 97.484 97.2027 97.44 97.0907 97.376C96.7627 97.136 96.4427 96.96 96.1307 96.848C95.8267 96.728 95.4507 96.668 95.0027 96.668C94.4587 96.668 94.0267 96.78 93.7067 97.004C93.3947 97.22 93.2387 97.524 93.2387 97.916C93.2387 98.244 93.3787 98.496 93.6587 98.672C93.9387 98.848 94.4147 99.012 95.0867 99.164C95.7987 99.324 96.3747 99.504 96.8147 99.704C97.2627 99.896 97.6027 100.144 97.8347 100.448C98.0747 100.752 98.1947 101.132 98.1947 101.588C98.1947 102.084 98.0547 102.524 97.7747 102.908C97.5027 103.284 97.1147 103.58 96.6107 103.796C96.1147 104.004 95.5427 104.108 94.8947 104.108ZM106.369 104.108C105.209 104.108 104.329 103.808 103.729 103.208C103.129 102.608 102.829 101.732 102.829 100.58V96.248C102.829 96.016 102.897 95.832 103.033 95.696C103.169 95.552 103.353 95.48 103.585 95.48C103.817 95.48 104.001 95.552 104.137 95.696C104.273 95.832 104.341 96.016 104.341 96.248V100.664C104.341 101.392 104.513 101.944 104.857 102.32C105.201 102.688 105.705 102.872 106.369 102.872C107.025 102.872 107.525 102.684 107.869 102.308C108.213 101.932 108.385 101.384 108.385 100.664V96.248C108.385 96.016 108.453 95.832 108.589 95.696C108.725 95.552 108.909 95.48 109.141 95.48C109.373 95.48 109.557 95.552 109.693 95.696C109.829 95.832 109.897 96.016 109.897 96.248V100.58C109.897 101.724 109.597 102.6 108.997 103.208C108.397 103.808 107.521 104.108 106.369 104.108ZM112.446 104.072C112.214 104.072 112.026 104.004 111.882 103.868C111.746 103.724 111.678 103.532 111.678 103.292V96.272C111.678 96.04 111.742 95.86 111.87 95.732C112.006 95.604 112.19 95.54 112.422 95.54H115.374C116.278 95.54 116.982 95.768 117.486 96.224C117.99 96.672 118.242 97.304 118.242 98.12C118.242 98.936 117.99 99.572 117.486 100.028C116.982 100.484 116.278 100.712 115.374 100.712H113.226V103.292C113.226 103.532 113.154 103.724 113.01 103.868C112.874 104.004 112.686 104.072 112.446 104.072ZM115.182 99.524C116.246 99.524 116.778 99.06 116.778 98.132C116.778 97.204 116.246 96.74 115.182 96.74H113.226V99.524H115.182ZM125.629 104.06C125.389 104.06 125.197 103.992 125.053 103.856C124.917 103.712 124.849 103.524 124.849 103.292V96.812H122.665C122.185 96.812 121.945 96.6 121.945 96.176C121.945 95.752 122.185 95.54 122.665 95.54H128.581C129.061 95.54 129.301 95.752 129.301 96.176C129.301 96.6 129.061 96.812 128.581 96.812H126.397V103.292C126.397 103.524 126.325 103.712 126.181 103.856C126.045 103.992 125.861 104.06 125.629 104.06ZM133.481 104.108C132.657 104.108 131.941 103.932 131.333 103.58C130.733 103.228 130.269 102.724 129.941 102.068C129.613 101.412 129.449 100.644 129.449 99.764C129.449 98.884 129.609 98.12 129.929 97.472C130.257 96.816 130.725 96.312 131.333 95.96C131.941 95.608 132.657 95.432 133.481 95.432C134.305 95.432 135.017 95.608 135.617 95.96C136.225 96.312 136.689 96.816 137.009 97.472C137.337 98.12 137.501 98.884 137.501 99.764C137.501 100.644 137.337 101.412 137.009 102.068C136.681 102.724 136.213 103.228 135.605 103.58C135.005 103.932 134.297 104.108 133.481 104.108ZM133.481 102.872C134.257 102.872 134.861 102.604 135.293 102.068C135.733 101.532 135.953 100.764 135.953 99.764C135.953 98.764 135.733 98 135.293 97.472C134.861 96.936 134.257 96.668 133.481 96.668C132.697 96.668 132.085 96.936 131.645 97.472C131.213 98 130.997 98.764 130.997 99.764C130.997 100.764 131.213 101.532 131.645 102.068C132.085 102.604 132.697 102.872 133.481 102.872Z" fill="#005CFF"/>
<path d="M15.284 138.568C16.692 138.568 17.9293 138.877 18.996 139.496C20.084 140.093 20.9267 140.936 21.524 142.024C22.1213 143.112 22.42 144.36 22.42 145.768C22.42 147.24 22.0787 148.541 21.396 149.672C20.7347 150.803 19.7853 151.688 18.548 152.328C17.332 152.947 15.924 153.256 14.324 153.256C13.0013 153.256 11.7 153.043 10.42 152.616C9.16133 152.168 8.084 151.571 7.188 150.824C6.69733 150.397 6.452 149.896 6.452 149.32C6.452 148.851 6.58 148.456 6.836 148.136C7.11333 147.795 7.43333 147.624 7.796 147.624C8.00933 147.624 8.212 147.667 8.404 147.752C8.596 147.816 8.82 147.933 9.076 148.104C9.92933 148.701 10.7613 149.16 11.572 149.48C12.3827 149.8 13.2467 149.96 14.164 149.96C15.572 149.96 16.6493 149.608 17.396 148.904C18.1427 148.2 18.516 147.197 18.516 145.896C18.516 144.637 18.132 143.645 17.364 142.92C16.6173 142.173 15.5827 141.8 14.26 141.8C13.428 141.8 12.6813 141.917 12.02 142.152C11.38 142.387 10.7187 142.781 10.036 143.336C9.63067 143.613 9.21467 143.752 8.788 143.752C8.36133 143.752 7.99867 143.624 7.7 143.368C7.40133 143.112 7.252 142.771 7.252 142.344V132.36C7.252 131.763 7.42267 131.293 7.764 130.952C8.10533 130.611 8.58533 130.44 9.204 130.44H19.86C21.14 130.44 21.78 130.973 21.78 132.04C21.78 133.107 21.14 133.64 19.86 133.64H11.284V139.72C12.372 138.952 13.7053 138.568 15.284 138.568ZM33.2875 153.288C30.6208 153.288 28.5835 152.307 27.1755 150.344C25.7675 148.36 25.0635 145.48 25.0635 141.704C25.0635 137.949 25.7675 135.091 27.1755 133.128C28.5835 131.144 30.6208 130.152 33.2875 130.152C35.9542 130.152 37.9915 131.144 39.3995 133.128C40.8075 135.091 41.5115 137.949 41.5115 141.704C41.5115 145.459 40.8075 148.328 39.3995 150.312C37.9915 152.296 35.9542 153.288 33.2875 153.288ZM33.2875 150.056C34.7382 150.056 35.7942 149.395 36.4555 148.072C37.1168 146.728 37.4475 144.605 37.4475 141.704C37.4475 138.781 37.1168 136.669 36.4555 135.368C35.7942 134.045 34.7382 133.384 33.2875 133.384C31.8368 133.384 30.7808 134.045 30.1195 135.368C29.4582 136.691 29.1275 138.803 29.1275 141.704C29.1275 144.605 29.4582 146.728 30.1195 148.072C30.7808 149.395 31.8368 150.056 33.2875 150.056ZM53.499 152.552C53.307 152.893 53.0723 153.149 52.795 153.32C52.5177 153.491 52.2403 153.576 51.963 153.576C51.579 153.576 51.2377 153.437 50.939 153.16C50.6617 152.883 50.523 152.531 50.523 152.104C50.523 151.741 50.6297 151.379 50.843 151.016L62.491 130.888C62.683 130.547 62.9177 130.291 63.195 130.12C63.4723 129.949 63.7497 129.864 64.027 129.864C64.411 129.864 64.7417 130.003 65.019 130.28C65.3177 130.557 65.467 130.909 65.467 131.336C65.467 131.699 65.3603 132.061 65.147 132.424L53.499 152.552ZM49.947 143.912C48.155 143.912 46.7577 143.325 45.755 142.152C44.7523 140.979 44.251 139.261 44.251 137C44.251 134.76 44.7523 133.053 45.755 131.88C46.7577 130.707 48.155 130.12 49.947 130.12C51.739 130.12 53.1363 130.707 54.139 131.88C55.163 133.053 55.675 134.76 55.675 137C55.675 139.261 55.163 140.979 54.139 142.152C53.1363 143.325 51.739 143.912 49.947 143.912ZM49.947 141.32C50.7577 141.32 51.3443 140.989 51.707 140.328C52.091 139.645 52.283 138.536 52.283 137C52.283 135.507 52.091 134.419 51.707 133.736C51.323 133.053 50.7363 132.712 49.947 132.712C49.1577 132.712 48.571 133.053 48.187 133.736C47.8243 134.397 47.643 135.485 47.643 137C47.643 138.536 47.8243 139.645 48.187 140.328C48.571 140.989 49.1577 141.32 49.947 141.32ZM66.043 153.224C64.251 153.224 62.8537 152.637 61.851 151.464C60.8483 150.291 60.347 148.563 60.347 146.28C60.347 144.04 60.8483 142.344 61.851 141.192C62.875 140.019 64.2723 139.432 66.043 139.432C67.835 139.432 69.2323 140.019 70.235 141.192C71.2377 142.365 71.739 144.072 71.739 146.312C71.739 148.573 71.2377 150.291 70.235 151.464C69.2323 152.637 67.835 153.224 66.043 153.224ZM66.043 150.632C66.8323 150.632 67.419 150.301 67.803 149.64C68.187 148.957 68.379 147.848 68.379 146.312C68.379 144.819 68.187 143.731 67.803 143.048C67.419 142.365 66.8323 142.024 66.043 142.024C65.2537 142.024 64.667 142.365 64.283 143.048C63.899 143.731 63.707 144.819 63.707 146.312C63.707 147.848 63.899 148.957 64.283 149.64C64.667 150.301 65.2537 150.632 66.043 150.632ZM85.605 153.288C83.4077 153.288 81.4983 152.819 79.877 151.88C78.277 150.941 77.0397 149.597 76.165 147.848C75.2903 146.099 74.853 144.051 74.853 141.704C74.853 139.357 75.2797 137.32 76.133 135.592C77.0077 133.843 78.2557 132.499 79.877 131.56C81.4983 130.621 83.4077 130.152 85.605 130.152C87.8023 130.152 89.701 130.621 91.301 131.56C92.9223 132.499 94.1597 133.843 95.013 135.592C95.8877 137.32 96.325 139.357 96.325 141.704C96.325 144.051 95.8877 146.099 95.013 147.848C94.1383 149.597 92.8903 150.941 91.269 151.88C89.669 152.819 87.781 153.288 85.605 153.288ZM85.605 149.992C87.6743 149.992 89.285 149.277 90.437 147.848C91.6103 146.419 92.197 144.371 92.197 141.704C92.197 139.037 91.6103 137 90.437 135.592C89.285 134.163 87.6743 133.448 85.605 133.448C83.5143 133.448 81.8823 134.163 80.709 135.592C79.557 137 78.981 139.037 78.981 141.704C78.981 144.371 79.557 146.419 80.709 147.848C81.8823 149.277 83.5143 149.992 85.605 149.992ZM102.543 153.192C101.924 153.192 101.423 153 101.039 152.616C100.676 152.232 100.495 151.731 100.495 151.112V132.392C100.495 131.773 100.665 131.293 101.007 130.952C101.369 130.611 101.86 130.44 102.479 130.44H113.711C115.012 130.44 115.663 130.995 115.663 132.104C115.663 133.192 115.012 133.736 113.711 133.736H104.559V139.88H113.071C114.372 139.88 115.023 140.435 115.023 141.544C115.023 142.632 114.372 143.176 113.071 143.176H104.559V151.112C104.559 151.731 104.377 152.232 104.015 152.616C103.652 153 103.161 153.192 102.543 153.192ZM120.668 153.192C120.049 153.192 119.548 153 119.164 152.616C118.801 152.232 118.62 151.731 118.62 151.112V132.392C118.62 131.773 118.79 131.293 119.132 130.952C119.494 130.611 119.985 130.44 120.604 130.44H131.836C133.137 130.44 133.788 130.995 133.788 132.104C133.788 133.192 133.137 133.736 131.836 133.736H122.684V139.88H131.196C132.497 139.88 133.148 140.435 133.148 141.544C133.148 142.632 132.497 143.176 131.196 143.176H122.684V151.112C122.684 151.731 122.502 152.232 122.14 152.616C121.777 153 121.286 153.192 120.668 153.192Z" fill="#005CFF"/>
</svg>
