<svg width="24" height="24" viewBox="0 0 24 24" fill="none" xmlns="http://www.w3.org/2000/svg">
<path d="M18.7895 5.99049C18.6479 5.9171 18.5101 5.83666 18.3765 5.74949C17.9877 5.49311 17.6312 5.19095 17.3145 4.84949C16.6924 4.15433 16.2767 3.2992 16.1145 2.38049C16.0559 2.09104 16.0397 1.7946 16.0665 1.50049H12.4685V15.4455C12.4685 15.6325 12.4685 15.8175 12.4605 16.0005C12.4605 16.0235 12.4605 16.0445 12.4605 16.0685C12.4616 16.0788 12.4616 16.0892 12.4605 16.0995V16.1075C12.4226 16.608 12.2622 17.0914 11.9935 17.5153C11.7247 17.9393 11.3559 18.2906 10.9195 18.5385C10.4649 18.7972 9.95064 18.933 9.42752 18.9325C8.61529 18.9325 7.83634 18.6098 7.26201 18.0355C6.68768 17.4612 6.36502 16.6822 6.36502 15.87C6.36502 15.0578 6.68768 14.2788 7.26201 13.7045C7.83634 13.1301 8.61529 12.8075 9.42752 12.8075C9.74571 12.8071 10.062 12.857 10.3645 12.9555V9.28349C9.44647 9.16493 8.51381 9.2379 7.62536 9.49779C6.73691 9.75768 5.91195 10.1989 5.20252 10.7935C4.5814 11.3323 4.05892 11.9753 3.65852 12.6935C3.15262 13.6243 2.87822 14.6632 2.85852 15.7225C2.85025 16.5367 2.98113 17.3464 3.24552 18.1165V18.1255C3.48367 18.7651 3.81345 19.3667 4.22452 19.9115C4.66998 20.4769 5.1963 20.9735 5.78652 21.3855V21.3765L5.79552 21.3855C6.88906 22.1064 8.16876 22.4935 9.47852 22.4995C10.4219 22.4995 11.354 22.2948 12.2105 21.8995C13.0562 21.5006 13.8113 20.933 14.4295 20.2315C14.9437 19.6353 15.3525 18.9559 15.6385 18.2225C15.9026 17.4832 16.0493 16.7071 16.0735 15.9225V8.52249C16.1175 8.54849 16.6995 8.93449 16.6995 8.93449C17.3708 9.32972 18.0942 9.62896 18.8485 9.82349C19.5734 9.98955 20.3117 10.09 21.0545 10.1235V6.54349C20.2649 6.55332 19.4857 6.36307 18.7895 5.99049Z" fill="#005CFF"/>
</svg>
