<svg width="34" height="11" viewBox="0 0 34 11" fill="none" xmlns="http://www.w3.org/2000/svg">
<path d="M24.454 1.22172C23.915 1.02625 23.0693 0.813477 22.0227 0.813477C19.3465 0.813477 17.4552 2.12881 17.4437 4.0112C17.4217 5.39474 18.7844 6.17457 19.8143 6.64084C20.8724 7.11831 21.2262 7.41558 21.221 7.83909C21.2157 8.49167 20.3753 8.78283 19.6018 8.78283C18.5269 8.78283 17.944 8.64031 17.0449 8.27381L16.711 8.12008L16.3301 10.2947C16.9842 10.5543 18.1564 10.7823 19.3663 10.8037C22.2174 10.8037 24.0762 9.49955 24.0971 7.48888C24.1191 6.38632 23.3896 5.54948 21.8353 4.85924C20.8976 4.41434 20.3104 4.11097 20.3104 3.65488C20.3104 3.25172 20.8117 2.82821 21.8584 2.82821C22.7574 2.81192 23.3906 3.00332 23.8857 3.19369L24.1421 3.30466L24.5179 1.21052L24.454 1.22172ZM31.411 0.993672H29.3177C28.6636 0.993672 28.1779 1.16369 27.889 1.79488L23.8658 10.6652H26.7116L27.2851 9.21245L30.7568 9.21754C30.8437 9.55656 31.0886 10.6642 31.0886 10.6642H33.6016L31.411 0.993672ZM13.59 0.914264H16.2997L14.6042 10.5899H11.8944L13.59 0.909173V0.914264ZM6.70001 6.24278L6.97737 7.58967L9.63162 0.993672H12.5046L8.23018 10.6489H5.36974L3.02529 2.47291C2.9761 2.33038 2.91644 2.23367 2.76886 2.15019C1.97866 1.74704 1.09007 1.4182 0.109375 1.19016L0.141821 0.987564H4.5136C5.10285 1.00894 5.58221 1.19016 5.74548 1.80506L6.70001 6.24787L6.70001 6.24278ZM28.0576 7.23437L29.1429 4.52531C29.1262 4.55077 29.3658 3.96844 29.5019 3.60194L29.6872 4.43369L30.3151 7.22826H28.0576V7.23437Z" fill="#303030"/>
</svg>
