<svg width="54" height="20" viewBox="0 0 54 20" fill="none" xmlns="http://www.w3.org/2000/svg">
<g clip-path="url(#clip0_22_368)">
<path d="M39.1896 7.61557H37.2896V14.0998C37.2887 14.222 37.1895 14.3208 37.0668 14.3218H35.6035C35.4809 14.3209 35.3818 14.222 35.3808 14.0998V7.61557H33.4669C33.4089 7.61792 33.3525 7.59673 33.3105 7.55683C33.2685 7.51694 33.2446 7.46176 33.2441 7.40394V6.25559C33.2445 6.19777 33.2685 6.1426 33.3105 6.1027C33.3525 6.06281 33.4089 6.04161 33.4669 6.04396H39.1861C39.3095 6.03806 39.4145 6.13263 39.421 6.25559V7.40394C39.4145 7.52549 39.3116 7.61952 39.1896 7.61557Z" fill="#FF3366"/>
<path d="M45.2827 14.278C44.5337 14.3849 43.7774 14.4336 43.0208 14.4238C41.5783 14.4238 40.3047 14.056 40.3047 12.0282V8.32814C40.3047 6.30032 41.5905 5.94471 43.0312 5.94471C43.782 5.93446 44.5325 5.98259 45.2758 6.08869C45.4324 6.11124 45.4985 6.16675 45.4985 6.31072V7.35153C45.4976 7.47376 45.3984 7.57262 45.2758 7.57356H42.9268C42.4048 7.57356 42.2117 7.74703 42.2117 8.33161V9.34466H45.194C45.3166 9.34559 45.4158 9.44446 45.4167 9.56669V10.6248C45.4158 10.7471 45.3166 10.8459 45.194 10.8469H42.2117V12.0282C42.2117 12.6076 42.4013 12.7862 42.9268 12.7862H45.2827C45.4053 12.7872 45.5045 12.886 45.5054 13.0083V14.0491C45.5072 14.1878 45.4393 14.2555 45.2827 14.278Z" fill="#FF3366"/>
<path d="M53.7148 14.3218H51.9383C51.8144 14.331 51.6981 14.2616 51.6477 14.1484L50.1061 11.7198L48.7141 14.1033C48.6358 14.2368 48.5575 14.3253 48.434 14.3253H46.7845C46.7413 14.333 46.6969 14.3212 46.6633 14.2931C46.6297 14.2649 46.6103 14.2234 46.6105 14.1796C46.6128 14.1523 46.6205 14.1258 46.6331 14.1015L49.0569 10.0788L46.6105 6.25563C46.5979 6.2351 46.5902 6.21196 46.5879 6.18798C46.5962 6.10015 46.6737 6.03524 46.7619 6.04227H48.561C48.6845 6.04227 48.7733 6.15329 48.8411 6.2539L50.2714 8.50897L51.6634 6.2539C51.7138 6.13985 51.8197 6.05984 51.9435 6.04227H53.5982C53.6864 6.03524 53.7639 6.10015 53.7722 6.18798C53.7699 6.21196 53.7622 6.2351 53.7496 6.25563L51.3136 10.1014L53.8488 14.0911C53.8684 14.125 53.8797 14.1631 53.8818 14.2021C53.8609 14.2785 53.8035 14.3218 53.7148 14.3218Z" fill="#FF3366"/>
<path d="M30.568 6.0667C30.4845 6.06485 30.4115 6.12236 30.394 6.20374L28.7706 12.1918C28.7479 12.315 28.7149 12.3653 28.614 12.3653C28.5131 12.3653 28.48 12.3202 28.4574 12.1918L26.8392 6.20374C26.8217 6.12236 26.7487 6.06485 26.6652 6.0667H25.0679C25.0143 6.06538 24.9631 6.0888 24.9291 6.13015C24.8951 6.1715 24.8821 6.22618 24.8939 6.27833C24.8939 6.27833 26.8757 13.1424 26.8966 13.217C27.1611 14.0358 27.8031 14.4313 28.6192 14.4313C29.4021 14.4593 30.1072 13.9622 30.3418 13.217C30.3731 13.1233 32.3114 6.27833 32.3114 6.27833C32.3226 6.22643 32.3093 6.17228 32.2754 6.13135C32.2415 6.09043 32.1906 6.06725 32.1374 6.06844L30.568 6.0667Z" fill="#FF3366"/>
<path d="M21.515 0.500071H4.86007C4.2574 0.505564 3.70106 0.823439 3.39166 1.33908C3.08226 1.85472 3.06441 2.49375 3.34456 3.02575L5.01145 6.18978H1.99087C1.60497 6.18278 1.24417 6.3799 1.04244 6.70795C0.840719 7.03601 0.828199 7.44599 1.00953 7.78567L6.36862 17.8814C6.56093 18.244 6.93858 18.4708 7.34996 18.4708C7.76134 18.4708 8.139 18.244 8.3313 17.8814L9.78591 15.1459L11.6129 18.5909C11.9099 19.1502 12.4927 19.5 13.1275 19.5C13.7623 19.5 14.3451 19.1502 14.6422 18.5909L22.994 2.93554C23.2705 2.42025 23.2539 1.79775 22.9503 1.29782C22.6468 0.797891 22.1012 0.494666 21.515 0.500071ZM14.0732 7.11436L10.4193 13.9455C10.2937 14.1814 10.0477 14.3289 9.77982 14.3289C9.51192 14.3289 9.26592 14.1814 9.14039 13.9455L5.53344 7.18027C5.42215 6.97208 5.42865 6.72093 5.55056 6.51873C5.67246 6.31653 5.89188 6.19296 6.12851 6.19325H13.5094C13.7318 6.18984 13.9394 6.30393 14.0553 6.49322C14.1711 6.6825 14.178 6.91875 14.0732 7.11436Z" fill="#FF3366"/>
</g>
<defs>
<clipPath id="clip0_22_368">
<rect width="53" height="19" fill="white" transform="translate(0.881836 0.5)"/>
</clipPath>
</defs>
</svg>
