<svg width="24" height="24" viewBox="0 0 24 24" fill="none" xmlns="http://www.w3.org/2000/svg">
<path d="M2.32963 19.5945C1.97035 19.4517 1.64961 19.2266 1.39325 18.9372C1.13688 18.6479 0.952044 18.3023 0.853629 17.9285C0.420537 15.9834 0.227099 13.9926 0.277629 12.0005C0.227393 10.0107 0.420491 8.02234 0.852629 6.07947C0.949117 5.70616 1.13183 5.36069 1.3861 5.07082C1.64036 4.78095 1.95907 4.55478 2.31663 4.41047C5.70363 3.11647 11.0506 3.07947 11.6496 3.07947H11.6876C12.3156 3.07947 17.6626 3.11647 21.0376 4.40547C21.3967 4.54841 21.7172 4.77362 21.9734 5.06297C22.2295 5.35232 22.4142 5.69774 22.5126 6.07147C22.9457 8.01658 23.1391 10.0074 23.0886 11.9995C23.1391 13.9905 22.946 15.9803 22.5136 17.9245C22.4165 18.297 22.2335 18.6416 21.9793 18.9308C21.7251 19.2199 21.4067 19.4455 21.0496 19.5895C17.6626 20.8835 12.3156 20.9205 11.7166 20.9205C11.0516 20.9215 5.70363 20.8795 2.32963 19.5945ZM2.91063 5.92847C2.79321 5.97738 2.68875 6.05287 2.60546 6.149C2.52217 6.24513 2.46232 6.35928 2.43063 6.48247C2.03266 8.29372 1.8567 10.1467 1.90663 12.0005C1.85667 13.8553 2.03297 15.7093 2.43163 17.5215C2.46411 17.6464 2.52545 17.762 2.61073 17.8589C2.69601 17.9558 2.80284 18.0314 2.92263 18.0795C6.06563 19.2795 11.4226 19.2945 11.6496 19.2945C11.9426 19.2945 17.3006 19.2805 20.4556 18.0755C20.573 18.0266 20.6775 17.9511 20.7608 17.8549C20.8441 17.7588 20.9039 17.6447 20.9356 17.5215C21.3337 15.7099 21.5096 13.8566 21.4596 12.0025C21.5097 10.147 21.3334 8.29229 20.9346 6.47947C20.9017 6.35511 20.8401 6.24017 20.7549 6.14382C20.6696 6.04746 20.563 5.97235 20.4436 5.92447C17.3006 4.72447 11.9436 4.70947 11.7166 4.70947H11.6496C11.4236 4.70847 6.06563 4.72247 2.91063 5.92847ZM9.66963 15.9795C9.53974 15.9098 9.43115 15.8063 9.35543 15.6799C9.27971 15.5534 9.23969 15.4088 9.23963 15.2615V8.74147C9.23944 8.594 9.27932 8.44925 9.35501 8.32268C9.43069 8.19611 9.53933 8.09249 9.66934 8.02286C9.79934 7.95324 9.94581 7.92025 10.0931 7.9274C10.2404 7.93455 10.383 7.98158 10.5056 8.06347L15.3936 11.3225C15.5052 11.3968 15.5967 11.4975 15.66 11.6157C15.7233 11.7339 15.7564 11.8659 15.7564 12C15.7564 12.134 15.7233 12.266 15.66 12.3842C15.5967 12.5024 15.5052 12.6031 15.3936 12.6775L10.5056 15.9365C10.3829 16.0181 10.2404 16.0649 10.0932 16.072C9.94594 16.079 9.79957 16.046 9.66963 15.9765V15.9795ZM10.8696 13.7395L13.4696 12.0025L10.8696 10.2665V13.7395Z" fill="#005CFF"/>
</svg>
